<?xml version="1.0" encoding="utf-8"?>
<!-- Generator: Adobe Illustrator 25.4.1, SVG Export Plug-In . SVG Version: 6.00 Build 0)  -->
<svg version="1.1" id="Layer_1" xmlns="http://www.w3.org/2000/svg" xmlns:xlink="http://www.w3.org/1999/xlink" x="0px" y="0px"
	 viewBox="0 0 600.37 74.23" style="enable-background:new 0 0 600.37 74.23;" xml:space="preserve">
<style type="text/css">
	.st0{fill:#E0ECF8;}
	.st1{fill:#A3D8C8;}
</style>
<g>
	<path class="st0" d="M7.98,25.81L7.98,25.81v-8.61C7.98,7.7,15.67,0,25.17,0s17.19,7.7,17.19,17.19v1.21
		c0.04,1.72-1.32,3.15-3.04,3.19c-1.72,0.04-3.15-1.32-3.2-3.04c0-0.04,0-0.09,0-0.13v-1.24c0-6.06-4.91-10.97-10.97-10.97
		s-10.97,4.91-10.97,10.97v8.61h29.16c0.33,0,0.67,0.02,1,0.05l-18.17,18.1"/>
	<path class="st0" d="M52.25,34.7V50.9c-0.01,4.91-4,8.88-8.91,8.87h0H8.91c-4.9,0.02-8.89-3.94-8.91-8.84V50.9V34.7
		c0-2.18,0.81-4.28,2.27-5.9c0.12,0.21,0.27,0.4,0.45,0.57l21.17,21.08l0.05,0.05l0.05,0.05c1.22,1.21,3.19,1.21,4.42,0L50.13,28.9
		C51.51,30.52,52.26,32.58,52.25,34.7"/>
	<g>
		<g>
			<path class="st0" d="M104.08,54.17c-2.75,2.15-7.64,2.99-10.93,2.99c-5.19,0-9.85-0.12-15.05-0.24l-0.42-0.42V16.32l0.42-0.42
				c5.14-0.18,9.85-0.24,15.05-0.24c3.28,0,8.18,0.84,10.93,2.99c5.61,4.42,6.69,10.81,6.69,17.73
				C110.76,43.36,109.75,49.75,104.08,54.17z M93.09,23.12c-2.03,0-3.76,0-5.91-0.06v26.69c2.15-0.06,3.88-0.06,5.91-0.06
				c6.87,0,7.88-7.22,7.88-13.31C100.97,30.35,99.96,23.12,93.09,23.12z"/>
			<path class="st0" d="M141.28,57.27c-3.05-0.06-5.14-1.43-6.45-3.16c-2.09,1.97-4.84,3.58-8.72,3.58c-6.15,0-9.08-4.78-9.08-9.08
				c0-7.17,5.67-10.33,11.82-10.33c1.07,0,2.69,0,4.24,0.12v-1.13c0-2.51-1.19-3.76-3.88-3.76c-2.57,0-5.67,0.96-8.78,1.91
				c-1.31-1.55-2.03-4.18-2.27-6.51c4-1.61,9.79-2.63,13.67-2.63c5.19,0,10.63,2.63,10.63,10.21v12.12c0,1.73,0.48,3.04,1.67,3.88
				C143.79,54.11,142.47,56.38,141.28,57.27z M133.1,49.09v-4.78c-1.19-0.06-2.39-0.12-3.22-0.12c-2.69,0-3.76,1.55-3.76,3.82
				c0,1.61,1.07,2.81,2.75,2.81C130.23,50.83,131.73,50.23,133.1,49.09z"/>
			<path class="st0" d="M169.82,30.17c0,1.19-0.12,2.33-0.36,3.4l-7.1-0.12v13.73c0,1.79,0.78,2.81,2.63,2.81h3.34
				c0.48,1.31,0.78,2.99,0.78,4.42c0,0.72-0.06,1.49-0.24,2.09c-2.21,0.3-5.37,0.6-7.7,0.6c-5.43,0-7.94-2.63-7.94-8.3V33.51
				l-4.66,0.06c-0.3-1.07-0.42-2.21-0.42-3.4c0-1.01,0.12-2.09,0.42-3.22l4.66,0.12V23.6c0-4.12,1.43-5.61,5.08-5.61h3.64l0.42,0.42
				v8.66l7.1-0.12C169.7,28.08,169.82,29.15,169.82,30.17z"/>
			<path class="st0" d="M184.63,44.91c0.3,3.22,1.43,5.67,5.37,5.67c2.69,0,5.31-0.84,7.76-1.79c1.37,1.37,2.21,3.64,2.45,5.49
				c-2.99,2.15-7.52,3.4-11.7,3.4c-10.51,0-13.31-7.7-13.31-15.58c0-9.02,3.88-16,13.37-16c7.88,0,12.42,5.43,12.42,12.66
				c0,2.63-0.18,4.18-0.78,6.15H184.63z M184.57,38.47h7.88v-0.66c0-2.75-1.13-5.08-3.94-5.08
				C185.89,32.73,184.81,34.59,184.57,38.47z"/>
			<path class="st0" d="M235.27,49.33c0,2.33,0.36,4.42,1.43,5.91c-1.37,1.19-3.46,2.03-5.79,2.03c-3.76,0-5.02-2.03-5.02-5.79
				V38.77c0-2.69-0.54-3.94-2.57-3.94c-1.19,0-2.87,0.6-4.42,2.03V56.8c-1.31,0.24-3.05,0.36-4.66,0.36c-1.55,0-3.34-0.12-4.66-0.36
				V27l0.42-0.42h3.52c2.51,0,4.12,1.31,4.9,3.58c2.33-2.09,5.02-3.7,8.48-3.7c5.43,0,8.36,4.42,8.36,10.63V49.33z"/>
			<path class="st0" d="M267.69,57.27c-3.05-0.06-5.14-1.43-6.45-3.16c-2.09,1.97-4.84,3.58-8.72,3.58c-6.15,0-9.08-4.78-9.08-9.08
				c0-7.17,5.67-10.33,11.82-10.33c1.07,0,2.69,0,4.24,0.12v-1.13c0-2.51-1.19-3.76-3.88-3.76c-2.57,0-5.67,0.96-8.78,1.91
				c-1.31-1.55-2.03-4.18-2.27-6.51c4-1.61,9.79-2.63,13.67-2.63c5.19,0,10.63,2.63,10.63,10.21v12.12c0,1.73,0.48,3.04,1.67,3.88
				C270.2,54.11,268.89,56.38,267.69,57.27z M259.51,49.09v-4.78c-1.19-0.06-2.39-0.12-3.22-0.12c-2.69,0-3.76,1.55-3.76,3.82
				c0,1.61,1.07,2.81,2.75,2.81C256.65,50.83,258.14,50.23,259.51,49.09z"/>
			<path class="st0" d="M304.54,49.33c0,2.33,0.36,4.42,1.43,5.91c-1.37,1.19-3.46,2.03-5.79,2.03c-3.76,0-5.02-2.03-5.02-5.79
				V38.77c0-2.69-0.54-3.94-2.57-3.94c-1.19,0-2.87,0.6-4.42,2.03V56.8c-1.31,0.24-3.05,0.36-4.66,0.36c-1.55,0-3.34-0.12-4.66-0.36
				V27l0.42-0.42h3.52c2.51,0,4.12,1.31,4.9,3.58c2.33-2.09,5.02-3.7,8.48-3.7c5.43,0,8.36,4.42,8.36,10.63V49.33z"/>
			<path class="st0" d="M316.18,33.51l-5.13,0.06c-0.24-1.01-0.36-2.33-0.36-3.4c0-1.01,0.12-2.21,0.36-3.22l4.66,0.06
				c-0.18-1.31-0.3-2.63-0.3-4c0-5.91,4.18-10.39,10.39-10.39c3.76,0,7.11,0.9,9.19,1.67c0.06,2.09-0.84,4.9-2.03,6.15
				c-1.19-0.36-2.99-0.84-4.6-0.84c-2.57,0-4,1.37-4,4.12c0,1.01,0.06,2.15,0.24,3.34l7.82-0.12c0.24,1.01,0.36,2.21,0.36,3.22
				c0,1.08-0.12,2.39-0.36,3.4l-7.16-0.12V56.8c-1.37,0.24-3.05,0.36-4.6,0.36c-1.49,0-3.04-0.12-4.48-0.36V33.51z"/>
			<path class="st0" d="M341.2,26.53c3.82,0.3,6.27,2.27,7.64,5.43c1.31-3.1,3.58-5.37,7.46-5.37c1.79,0,2.75,0.24,3.94,0.48
				c0,2.21-0.78,6.15-2.33,8.72c-1.01-0.36-2.03-0.48-3.04-0.6c-2.15,0-3.64,1.08-4.9,3.04V56.8c-1.31,0.24-3.04,0.36-4.66,0.36
				c-1.55,0-3.28-0.12-4.66-0.36V37.51c0-3.52-1.31-5.49-2.27-6.21C338.76,29.69,340.07,27.42,341.2,26.53z"/>
			<path class="st0" d="M388.73,57.27c-3.05-0.06-5.14-1.43-6.45-3.16c-2.09,1.97-4.84,3.58-8.72,3.58c-6.15,0-9.08-4.78-9.08-9.08
				c0-7.17,5.67-10.33,11.82-10.33c1.07,0,2.69,0,4.24,0.12v-1.13c0-2.51-1.19-3.76-3.88-3.76c-2.57,0-5.67,0.96-8.78,1.91
				c-1.31-1.55-2.03-4.18-2.27-6.51c4-1.61,9.79-2.63,13.67-2.63c5.19,0,10.63,2.63,10.63,10.21v12.12c0,1.73,0.48,3.04,1.67,3.88
				C391.24,54.11,389.93,56.38,388.73,57.27z M380.55,49.09v-4.78c-1.19-0.06-2.39-0.12-3.22-0.12c-2.69,0-3.76,1.55-3.76,3.82
				c0,1.61,1.07,2.81,2.75,2.81C377.69,50.83,379.18,50.23,380.55,49.09z"/>
			<path class="st0" d="M409.69,26.11c3.52,0,6.09,1.25,7.88,2.81c1.31-1.43,3.16-2.33,5.61-2.39c1.19,0.9,2.63,3.1,2.87,4.78
				c-1.01,0.72-1.67,2.39-1.67,4.3v15.76c0,8.36-1.19,11.88-3.04,14.27c-2.39,2.99-6.45,4.36-11.23,4.36
				c-3.76,0-8.12-0.78-11.23-1.97c0-2.21,0.96-5.19,2.27-6.75c2.57,1.13,5.43,1.79,8.12,1.79c4.36,0,6.03-2.39,6.03-6.03v-1.97
				c-1.97,1.43-4.36,2.33-6.81,2.33c-7.28,0-10.75-6.39-10.75-15.46C397.75,31.72,403.19,26.11,409.69,26.11z M415.31,35.06
				c-1.37-1.31-2.81-2.03-3.94-2.03c-2.93,0-4.06,3.4-4.06,8.96s1.49,7.88,3.52,7.88c1.55,0,3.1-0.66,4.48-2.03V35.48V35.06z"/>
			<path class="st0" d="M442.06,44.91c0.3,3.22,1.43,5.67,5.37,5.67c2.69,0,5.31-0.84,7.76-1.79c1.37,1.37,2.21,3.64,2.45,5.49
				c-2.99,2.15-7.52,3.4-11.7,3.4c-10.51,0-13.31-7.7-13.31-15.58c0-9.02,3.88-16,13.37-16c7.88,0,12.42,5.43,12.42,12.66
				c0,2.63-0.18,4.18-0.78,6.15H442.06z M442,38.47h7.88v-0.66c0-2.75-1.13-5.08-3.94-5.08C443.31,32.73,442.24,34.59,442,38.47z"/>
			<path class="st0" d="M492.75,49.33c0,2.33,0.36,4.42,1.43,5.91c-1.37,1.19-3.46,2.03-5.79,2.03c-3.76,0-5.02-2.03-5.02-5.79
				V38.77c0-2.69-0.54-3.94-2.57-3.94c-1.19,0-2.87,0.6-4.42,2.03V56.8c-1.31,0.24-3.05,0.36-4.66,0.36c-1.55,0-3.34-0.12-4.66-0.36
				V27l0.42-0.42h3.52c2.51,0,4.12,1.31,4.9,3.58c2.33-2.09,5.02-3.7,8.48-3.7c5.43,0,8.36,4.42,8.36,10.63V49.33z"/>
		</g>
		<g>
			<path class="st1" d="M503.15,49.09c1.19-0.66,3.1-1.08,4.66-1.08c1.55,0,3.52,0.42,4.72,1.08c0.54,1.13,0.72,2.93,0.72,3.64
				c0,0.72-0.18,2.51-0.72,3.58c-1.19,0.78-3.16,1.13-4.72,1.13c-1.55,0-3.46-0.36-4.66-1.13c-0.54-1.08-0.72-2.87-0.72-3.58
				C502.43,52.02,502.61,50.23,503.15,49.09z"/>
		</g>
		<g>
			<path class="st0" d="M533.25,26.41c2.09,0,3.88,0.54,5.55,1.31V13.27l0.36-0.42h3.64c3.7,0,5.08,1.43,5.08,5.61V48.2
				c0,1.91,0.66,3.58,1.67,4.3c-0.36,1.61-1.67,3.88-2.87,4.78c-2.99-0.06-5.08-1.31-6.39-3.34c-2.09,2.21-4.96,3.76-8.24,3.76
				c-7.28,0-10.75-6.39-10.75-15.46C521.31,31.96,526.74,26.41,533.25,26.41z M538.8,47.84V34.76c-1.43-0.84-2.75-1.43-3.88-1.43
				c-2.87,0-4.06,3.46-4.06,8.96c0,5.55,1.49,7.88,3.58,7.88C535.64,50.17,537.31,49.69,538.8,47.84z"/>
			<path class="st0" d="M565.8,44.91c0.3,3.22,1.43,5.67,5.37,5.67c2.69,0,5.31-0.84,7.76-1.79c1.37,1.37,2.21,3.64,2.45,5.49
				c-2.99,2.15-7.52,3.4-11.7,3.4c-10.51,0-13.32-7.7-13.32-15.58c0-9.02,3.88-16,13.38-16c7.88,0,12.42,5.43,12.42,12.66
				c0,2.63-0.18,4.18-0.78,6.15H565.8z M565.74,38.47h7.88v-0.66c0-2.75-1.13-5.08-3.94-5.08
				C567.05,32.73,565.97,34.59,565.74,38.47z"/>
		</g>
	</g>
</g>
<g>
</g>
<g>
</g>
<g>
</g>
<g>
</g>
<g>
</g>
<g>
</g>
<g>
</g>
<g>
</g>
<g>
</g>
<g>
</g>
<g>
</g>
<g>
</g>
<g>
</g>
<g>
</g>
<g>
</g>
</svg>
