<?xml version="1.0" encoding="utf-8"?>
<!-- Generator: Adobe Illustrator 25.4.1, SVG Export Plug-In . SVG Version: 6.00 Build 0)  -->
<svg version="1.1" id="Layer_1" xmlns="http://www.w3.org/2000/svg" xmlns:xlink="http://www.w3.org/1999/xlink" x="0px" y="0px"
	 viewBox="0 0 556.95 74.23" style="enable-background:new 0 0 556.95 74.23;" xml:space="preserve">
<style type="text/css">
	.st0{fill:#E0ECF8;}
	.st1{fill:#A3D8C8;}
</style>
<g>
	<path class="st0" d="M7.98,25.81L7.98,25.81v-8.61C7.98,7.7,15.67,0,25.17,0s17.19,7.7,17.19,17.19v1.21
		c0.04,1.72-1.32,3.15-3.04,3.19c-1.72,0.04-3.15-1.32-3.2-3.04c0-0.04,0-0.09,0-0.13v-1.24c0-6.06-4.91-10.97-10.97-10.97
		s-10.97,4.91-10.97,10.97v8.61h29.16c0.33,0,0.67,0.02,1,0.05l-18.17,18.1"/>
	<path class="st0" d="M52.25,34.7V50.9c-0.01,4.91-4,8.88-8.91,8.87h0H8.91c-4.9,0.02-8.89-3.94-8.91-8.84V50.9V34.7
		c0-2.18,0.81-4.28,2.27-5.9c0.12,0.21,0.27,0.4,0.45,0.57l21.17,21.08l0.05,0.05l0.05,0.05c1.22,1.21,3.19,1.21,4.42,0L50.13,28.9
		C51.51,30.52,52.26,32.58,52.25,34.7"/>
	<g>
		<path class="st0" d="M98.23,54.17c-2.51,2.45-5.79,3.52-9.49,3.52c-3.76,0-7.05-1.07-9.49-3.52c-3.16-3.17-4.3-7.05-4.3-12.3
			c0-5.19,1.13-9.08,4.3-12.24c2.45-2.45,5.73-3.52,9.49-3.52c3.7,0,6.99,1.07,9.49,3.52c3.16,3.16,4.3,7.05,4.3,12.24
			C102.52,47.12,101.39,51,98.23,54.17z M88.73,50.71c3.64,0,4.18-3.88,4.18-8.84c0-4.9-0.54-8.78-4.18-8.78
			c-3.7,0-4.24,3.88-4.24,8.78C84.49,46.83,85.03,50.71,88.73,50.71z"/>
		<path class="st0" d="M110.35,48.44c2.63,1.37,5.91,2.51,8.3,2.51c2.27,0,3.46-0.9,3.46-2.09c0-1.13-0.78-2.03-2.75-2.69
			l-3.28-1.25c-4.18-1.55-7.46-4.12-7.46-8.96c0-6.03,4.54-9.85,11.58-9.85c3.58,0,8.36,1.19,10.99,2.51
			c0.12,2.21-1.07,5.37-2.57,6.51c-2.51-1.13-5.49-2.27-8.36-2.27c-1.61,0-2.45,0.84-2.45,1.91c0,1.02,0.66,1.67,2.27,2.27l3.7,1.31
			c4.54,1.61,7.94,4.54,7.94,9.61c0,5.97-4.78,9.73-12.06,9.73c-4.66,0-9.14-1.37-11.88-2.93
			C107.84,52.74,108.98,49.87,110.35,48.44z"/>
		<path class="st0" d="M160.39,54.17c-2.51,2.45-5.79,3.52-9.49,3.52c-3.76,0-7.05-1.07-9.49-3.52c-3.16-3.17-4.3-7.05-4.3-12.3
			c0-5.19,1.13-9.08,4.3-12.24c2.45-2.45,5.73-3.52,9.49-3.52c3.7,0,6.99,1.07,9.49,3.52c3.16,3.16,4.3,7.05,4.3,12.24
			C164.69,47.12,163.55,51,160.39,54.17z M150.89,50.71c3.64,0,4.18-3.88,4.18-8.84c0-4.9-0.54-8.78-4.18-8.78
			c-3.7,0-4.24,3.88-4.24,8.78C146.65,46.83,147.19,50.71,150.89,50.71z"/>
		<path class="st0" d="M184.04,57.33c-4.36,0-8.54-0.78-11.7-2.03V13.27l0.42-0.42h3.52c3.64,0,5.14,1.43,5.14,5.61v9.97
			c1.85-1.19,4.12-2.03,6.93-2.03c7.05,0,10.57,6.39,10.57,15.05C198.96,51.18,193.11,57.33,184.04,57.33z M181.41,35.84v14.57
			c0.9,0.18,1.79,0.24,2.75,0.24c3.64,0,5.19-3.46,5.19-9.02c0-5.37-1.25-7.7-3.82-7.76C184.27,33.87,182.72,34.41,181.41,35.84z"/>
		<path class="st0" d="M232.22,49.33c0,2.33,0.36,4.42,1.43,5.91c-1.37,1.19-3.46,2.03-5.79,2.03c-3.76,0-5.02-2.03-5.02-5.79V38.77
			c0-2.69-0.54-3.94-2.57-3.94c-1.19,0-2.87,0.6-4.42,2.03V56.8c-1.31,0.24-3.05,0.36-4.66,0.36c-1.55,0-3.34-0.12-4.66-0.36V27
			l0.42-0.42h3.52c2.51,0,4.12,1.31,4.9,3.58c2.33-2.09,5.02-3.7,8.48-3.7c5.43,0,8.36,4.42,8.36,10.63V49.33z"/>
		<path class="st0" d="M252.23,56.8c-1.31,0.24-3.1,0.36-4.72,0.36c-1.55,0-3.28-0.12-4.66-0.36V37.03c0-1.97-0.72-3.46-2.81-3.46
			h-0.9c-0.3-1.01-0.36-2.03-0.36-3.16c0-1.02,0.06-2.27,0.36-3.34c1.85-0.18,3.94-0.3,5.25-0.3h1.31c3.94,0,6.51,2.75,6.51,7.11
			V56.8z M241.78,15c1.02-0.54,2.81-0.96,4.42-0.96c1.61,0,3.52,0.42,4.42,0.96c0.48,1.07,0.72,2.39,0.72,3.46
			c0,1.07-0.24,2.39-0.72,3.46c-0.9,0.48-2.81,0.9-4.42,0.9c-1.61,0-3.52-0.36-4.42-0.9c-0.48-1.08-0.72-2.39-0.72-3.46
			C241.06,17.33,241.3,16.08,241.78,15z"/>
		<path class="st0" d="M276.17,57.39c-2.09,0-3.88-0.54-5.49-1.25v7.94c0,4.18-1.43,5.61-5.13,5.61h-3.58l-0.42-0.42V27l0.42-0.42
			h2.45c2.21,0,4,1.07,5.08,2.93c2.03-2.03,4.84-3.4,7.94-3.4c7.28,0,10.75,6.39,10.75,15.4C288.17,51.78,282.74,57.39,276.17,57.39
			z M270.68,35.96v13.14c1.37,0.84,2.75,1.37,3.88,1.37c2.87,0,4.06-3.46,4.06-9.02c0-5.49-1.49-7.88-3.58-7.88
			C273.84,33.57,272.17,34.05,270.68,35.96z"/>
		<path class="st0" d="M317.43,54.17c-2.51,2.45-5.79,3.52-9.49,3.52c-3.76,0-7.05-1.07-9.49-3.52c-3.16-3.17-4.3-7.05-4.3-12.3
			c0-5.19,1.13-9.08,4.3-12.24c2.45-2.45,5.73-3.52,9.49-3.52c3.7,0,6.99,1.07,9.49,3.52c3.16,3.16,4.3,7.05,4.3,12.24
			C321.73,47.12,320.6,51,317.43,54.17z M307.94,50.71c3.64,0,4.18-3.88,4.18-8.84c0-4.9-0.54-8.78-4.18-8.78
			c-3.7,0-4.24,3.88-4.24,8.78C303.7,46.83,304.24,50.71,307.94,50.71z"/>
		<path class="st0" d="M339.65,26.41c2.09,0,3.88,0.54,5.55,1.31V13.27l0.36-0.42h3.64c3.7,0,5.08,1.43,5.08,5.61V48.2
			c0,1.91,0.66,3.58,1.67,4.3c-0.36,1.61-1.67,3.88-2.87,4.78c-2.99-0.06-5.08-1.31-6.39-3.34c-2.09,2.21-4.96,3.76-8.24,3.76
			c-7.28,0-10.75-6.39-10.75-15.46C327.71,31.96,333.14,26.41,339.65,26.41z M345.2,47.84V34.76c-1.43-0.84-2.75-1.43-3.88-1.43
			c-2.87,0-4.06,3.46-4.06,8.96c0,5.55,1.49,7.88,3.58,7.88C342.04,50.17,343.71,49.69,345.2,47.84z"/>
		<path class="st0" d="M386.28,57.27c-3.05-0.06-5.14-1.43-6.45-3.16c-2.09,1.97-4.84,3.58-8.72,3.58c-6.15,0-9.08-4.78-9.08-9.08
			c0-7.17,5.67-10.33,11.82-10.33c1.07,0,2.69,0,4.24,0.12v-1.13c0-2.51-1.19-3.76-3.88-3.76c-2.57,0-5.67,0.96-8.78,1.91
			c-1.31-1.55-2.03-4.18-2.27-6.51c4-1.61,9.79-2.63,13.67-2.63c5.19,0,10.63,2.63,10.63,10.21v12.12c0,1.73,0.48,3.04,1.67,3.88
			C388.79,54.11,387.48,56.38,386.28,57.27z M378.1,49.09v-4.78c-1.19-0.06-2.39-0.12-3.22-0.12c-2.69,0-3.76,1.55-3.76,3.82
			c0,1.61,1.07,2.81,2.75,2.81C375.24,50.83,376.73,50.23,378.1,49.09z"/>
		<path class="st0" d="M408.14,33.03c-2.75,0-3.7,2.69-3.7,8.96c0,6.33,1.79,8.42,5.19,8.42c2.33,0,4.66-1.19,6.57-2.51
			c1.49,0.84,3.1,3.34,3.52,5.19c-2.63,2.81-7.22,4.6-11.58,4.6c-8.6,0-13.2-6.15-13.2-15.7c0-11.58,6.81-15.88,13.37-15.88
			c6.69,0,11.64,4,11.64,9.91c0,3.1-1.97,4.54-4.6,4.54c-1.55,0-2.57-0.12-3.76-0.36C411.66,35.6,411.24,33.03,408.14,33.03z"/>
		<path class="st0" d="M438.12,56.8c-1.31,0.24-3.1,0.36-4.72,0.36c-1.55,0-3.28-0.12-4.66-0.36V37.03c0-1.97-0.72-3.46-2.81-3.46
			h-0.9c-0.3-1.01-0.36-2.03-0.36-3.16c0-1.02,0.06-2.27,0.36-3.34c1.85-0.18,3.94-0.3,5.25-0.3h1.31c3.94,0,6.51,2.75,6.51,7.11
			V56.8z M427.67,15c1.02-0.54,2.81-0.96,4.42-0.96c1.61,0,3.52,0.42,4.42,0.96c0.48,1.07,0.72,2.39,0.72,3.46
			c0,1.07-0.24,2.39-0.72,3.46c-0.9,0.48-2.81,0.9-4.42,0.9c-1.61,0-3.52-0.36-4.42-0.9c-0.48-1.08-0.72-2.39-0.72-3.46
			C426.95,17.33,427.19,16.08,427.67,15z"/>
		<path class="st1" d="M447.73,49.09c1.19-0.66,3.11-1.08,4.66-1.08c1.55,0,3.52,0.42,4.72,1.08c0.54,1.13,0.72,2.93,0.72,3.64
			c0,0.72-0.18,2.51-0.72,3.58c-1.19,0.78-3.16,1.13-4.72,1.13c-1.55,0-3.46-0.36-4.66-1.13c-0.54-1.08-0.72-2.87-0.72-3.58
			C447.01,52.02,447.19,50.23,447.73,49.09z"/>
		<path class="st0" d="M488.33,54.17c-2.51,2.45-5.79,3.52-9.49,3.52c-3.76,0-7.04-1.07-9.49-3.52c-3.16-3.17-4.3-7.05-4.3-12.3
			c0-5.19,1.13-9.08,4.3-12.24c2.45-2.45,5.73-3.52,9.49-3.52c3.7,0,6.99,1.07,9.49,3.52c3.16,3.16,4.3,7.05,4.3,12.24
			C492.63,47.12,491.5,51,488.33,54.17z M478.84,50.71c3.64,0,4.18-3.88,4.18-8.84c0-4.9-0.54-8.78-4.18-8.78
			c-3.7,0-4.24,3.88-4.24,8.78C474.6,46.83,475.14,50.71,478.84,50.71z"/>
		<path class="st0" d="M501.29,26.53c3.82,0.3,6.27,2.27,7.64,5.43c1.31-3.1,3.58-5.37,7.46-5.37c1.79,0,2.75,0.24,3.94,0.48
			c0,2.21-0.78,6.15-2.33,8.72c-1.01-0.36-2.03-0.48-3.04-0.6c-2.15,0-3.64,1.08-4.9,3.04V56.8c-1.31,0.24-3.04,0.36-4.66,0.36
			c-1.55,0-3.28-0.12-4.66-0.36V37.51c0-3.52-1.31-5.49-2.27-6.21C498.85,29.69,500.16,27.42,501.29,26.53z"/>
		<path class="st0" d="M536.52,26.11c3.52,0,6.09,1.25,7.88,2.81c1.31-1.43,3.17-2.33,5.61-2.39c1.19,0.9,2.63,3.1,2.87,4.78
			c-1.01,0.72-1.67,2.39-1.67,4.3v15.76c0,8.36-1.19,11.88-3.04,14.27c-2.39,2.99-6.45,4.36-11.22,4.36
			c-3.76,0-8.12-0.78-11.23-1.97c0-2.21,0.96-5.19,2.27-6.75c2.57,1.13,5.43,1.79,8.12,1.79c4.36,0,6.03-2.39,6.03-6.03v-1.97
			c-1.97,1.43-4.36,2.33-6.81,2.33c-7.28,0-10.75-6.39-10.75-15.46C524.58,31.72,530.01,26.11,536.52,26.11z M542.14,35.06
			c-1.37-1.31-2.81-2.03-3.94-2.03c-2.93,0-4.06,3.4-4.06,8.96s1.49,7.88,3.52,7.88c1.55,0,3.11-0.66,4.48-2.03V35.48V35.06z"/>
	</g>
</g>
<g>
</g>
<g>
</g>
<g>
</g>
<g>
</g>
<g>
</g>
<g>
</g>
<g>
</g>
<g>
</g>
<g>
</g>
<g>
</g>
<g>
</g>
<g>
</g>
<g>
</g>
<g>
</g>
<g>
</g>
</svg>
