<?xml version="1.0" encoding="utf-8"?>
<!-- Generator: Adobe Illustrator 25.4.1, SVG Export Plug-In . SVG Version: 6.00 Build 0)  -->
<svg version="1.1" id="Layer_1" xmlns="http://www.w3.org/2000/svg" xmlns:xlink="http://www.w3.org/1999/xlink" x="0px" y="0px"
	 viewBox="0 0 621.86 74.23" style="enable-background:new 0 0 621.86 74.23;" xml:space="preserve">
<style type="text/css">
	.st0{fill:#E0ECF8;}
	.st1{fill:#A3D8C8;}
</style>
<g>
	<path class="st0" d="M7.98,25.81L7.98,25.81v-8.61C7.98,7.7,15.67,0,25.17,0s17.19,7.7,17.19,17.19v1.21
		c0.04,1.72-1.32,3.15-3.04,3.19c-1.72,0.04-3.15-1.32-3.2-3.04c0-0.04,0-0.09,0-0.13v-1.24c0-6.06-4.91-10.97-10.97-10.97
		s-10.97,4.91-10.97,10.97v8.61h29.16c0.33,0,0.67,0.02,1,0.05l-18.17,18.1"/>
	<path class="st0" d="M52.25,34.7V50.9c-0.01,4.91-4,8.88-8.91,8.87h0H8.91c-4.9,0.02-8.89-3.94-8.91-8.84V50.9V34.7
		c0-2.18,0.81-4.28,2.27-5.9c0.12,0.21,0.27,0.4,0.45,0.57l21.17,21.08l0.05,0.05l0.05,0.05c1.22,1.21,3.19,1.21,4.42,0L50.13,28.9
		C51.51,30.52,52.26,32.58,52.25,34.7"/>
	<g>
		<path class="st0" d="M76.91,48.44c2.63,1.37,5.91,2.51,8.3,2.51c2.27,0,3.46-0.9,3.46-2.09c0-1.13-0.78-2.03-2.75-2.69l-3.28-1.25
			c-4.18-1.55-7.46-4.12-7.46-8.96c0-6.03,4.54-9.85,11.58-9.85c3.58,0,8.36,1.19,10.99,2.51c0.12,2.21-1.07,5.37-2.57,6.51
			c-2.51-1.13-5.49-2.27-8.36-2.27c-1.61,0-2.45,0.84-2.45,1.91c0,1.02,0.66,1.67,2.27,2.27l3.7,1.31c4.54,1.61,7.94,4.54,7.94,9.61
			c0,5.97-4.78,9.73-12.06,9.73c-4.66,0-9.14-1.37-11.88-2.93C74.4,52.74,75.54,49.87,76.91,48.44z"/>
		<path class="st0" d="M126.95,54.17c-2.51,2.45-5.79,3.52-9.49,3.52c-3.76,0-7.05-1.07-9.49-3.52c-3.16-3.17-4.3-7.05-4.3-12.3
			c0-5.19,1.13-9.08,4.3-12.24c2.45-2.45,5.73-3.52,9.49-3.52c3.7,0,6.99,1.07,9.49,3.52c3.16,3.16,4.3,7.05,4.3,12.24
			C131.25,47.12,130.11,51,126.95,54.17z M117.45,50.71c3.64,0,4.18-3.88,4.18-8.84c0-4.9-0.54-8.78-4.18-8.78
			c-3.7,0-4.24,3.88-4.24,8.78C113.21,46.83,113.75,50.71,117.45,50.71z"/>
		<path class="st0" d="M152.15,49.99c0.48,1.31,0.72,2.93,0.72,4.42c0,0.72,0,1.49-0.18,2.09c-1.79,0.3-4.18,0.6-6.45,0.6
			c-5.37,0-7.4-2.63-7.4-8.3V13.27l0.36-0.42h3.64c3.7,0,5.08,1.43,5.08,5.61v28.72c0,1.79,0.72,2.81,2.63,2.81H152.15z"/>
		<path class="st0" d="M170.6,56.8c-1.31,0.24-3.1,0.36-4.72,0.36c-1.55,0-3.28-0.12-4.66-0.36V37.03c0-1.97-0.72-3.46-2.81-3.46
			h-0.9c-0.3-1.01-0.36-2.03-0.36-3.16c0-1.02,0.06-2.27,0.36-3.34c1.85-0.18,3.94-0.3,5.25-0.3h1.31c3.94,0,6.51,2.75,6.51,7.11
			V56.8z M160.15,15c1.02-0.54,2.81-0.96,4.42-0.96c1.61,0,3.52,0.42,4.42,0.96c0.48,1.07,0.72,2.39,0.72,3.46
			c0,1.07-0.24,2.39-0.72,3.46c-0.9,0.48-2.81,0.9-4.42,0.9c-1.61,0-3.52-0.36-4.42-0.9c-0.48-1.08-0.72-2.39-0.72-3.46
			C159.43,17.33,159.67,16.08,160.15,15z"/>
		<path class="st0" d="M191.32,33.03c-2.75,0-3.7,2.69-3.7,8.96c0,6.33,1.79,8.42,5.19,8.42c2.33,0,4.66-1.19,6.57-2.51
			c1.49,0.84,3.1,3.34,3.52,5.19c-2.63,2.81-7.22,4.6-11.58,4.6c-8.6,0-13.2-6.15-13.2-15.7c0-11.58,6.81-15.88,13.37-15.88
			c6.69,0,11.64,4,11.64,9.91c0,3.1-1.97,4.54-4.6,4.54c-1.55,0-2.57-0.12-3.76-0.36C194.84,35.6,194.42,33.03,191.32,33.03z"/>
		<path class="st0" d="M221.3,56.8c-1.31,0.24-3.1,0.36-4.72,0.36c-1.55,0-3.28-0.12-4.66-0.36V37.03c0-1.97-0.72-3.46-2.81-3.46
			h-0.9c-0.3-1.01-0.36-2.03-0.36-3.16c0-1.02,0.06-2.27,0.36-3.34c1.85-0.18,3.94-0.3,5.25-0.3h1.31c3.94,0,6.51,2.75,6.51,7.11
			V56.8z M210.85,15c1.02-0.54,2.81-0.96,4.42-0.96c1.61,0,3.52,0.42,4.42,0.96c0.48,1.07,0.72,2.39,0.72,3.46
			c0,1.07-0.24,2.39-0.72,3.46c-0.9,0.48-2.81,0.9-4.42,0.9c-1.61,0-3.52-0.36-4.42-0.9c-0.48-1.08-0.72-2.39-0.72-3.46
			C210.13,17.33,210.37,16.08,210.85,15z"/>
		<path class="st0" d="M248.4,30.17c0,1.19-0.12,2.33-0.36,3.4l-7.1-0.12v13.73c0,1.79,0.78,2.81,2.63,2.81h3.34
			c0.48,1.31,0.78,2.99,0.78,4.42c0,0.72-0.06,1.49-0.24,2.09c-2.21,0.3-5.37,0.6-7.7,0.6c-5.43,0-7.94-2.63-7.94-8.3V33.51
			l-4.66,0.06c-0.3-1.07-0.42-2.21-0.42-3.4c0-1.01,0.12-2.09,0.42-3.22l4.66,0.12V23.6c0-4.12,1.43-5.61,5.08-5.61h3.64l0.42,0.42
			v8.66l7.1-0.12C248.29,28.08,248.4,29.15,248.4,30.17z"/>
		<path class="st0" d="M255.09,34.47c0-2.33-0.36-4.42-1.43-5.97c1.31-1.13,3.46-1.97,5.79-1.97c3.76,0,5.02,2.03,5.02,5.79v12.66
			c0,2.75,0.54,4,2.57,4c1.13,0,2.87-0.54,4.42-2.03V27c1.31-0.24,3.04-0.36,4.66-0.36c1.55,0,3.28,0.12,4.66,0.36v21.26
			c0,1.91,0.66,3.64,1.67,4.36c-0.36,1.61-1.67,3.76-2.87,4.66c-3.34-0.12-5.73-1.73-7.05-4.18c-2.51,2.27-5.43,4.24-9.08,4.24
			c-5.43,0-8.36-4.42-8.36-10.63V34.47z"/>
		<path class="st0" d="M300.6,26.41c2.09,0,3.88,0.54,5.55,1.31V13.27l0.36-0.42h3.64c3.7,0,5.08,1.43,5.08,5.61V48.2
			c0,1.91,0.66,3.58,1.67,4.3c-0.36,1.61-1.67,3.88-2.87,4.78c-2.99-0.06-5.08-1.31-6.39-3.34c-2.09,2.21-4.96,3.76-8.24,3.76
			c-7.28,0-10.75-6.39-10.75-15.46C288.65,31.96,294.09,26.41,300.6,26.41z M306.15,47.84V34.76c-1.43-0.84-2.75-1.43-3.88-1.43
			c-2.87,0-4.06,3.46-4.06,8.96c0,5.55,1.49,7.88,3.58,7.88C302.98,50.17,304.66,49.69,306.15,47.84z"/>
		<path class="st0" d="M335.05,26.41c2.09,0,3.88,0.54,5.55,1.31V13.27l0.36-0.42h3.64c3.7,0,5.08,1.43,5.08,5.61V48.2
			c0,1.91,0.66,3.58,1.67,4.3c-0.36,1.61-1.67,3.88-2.87,4.78c-2.99-0.06-5.08-1.31-6.39-3.34c-2.09,2.21-4.96,3.76-8.24,3.76
			c-7.28,0-10.75-6.39-10.75-15.46C323.11,31.96,328.54,26.41,335.05,26.41z M340.6,47.84V34.76c-1.43-0.84-2.75-1.43-3.88-1.43
			c-2.87,0-4.06,3.46-4.06,8.96c0,5.55,1.49,7.88,3.58,7.88C337.44,50.17,339.11,49.69,340.6,47.84z"/>
		<path class="st0" d="M366.88,44.92c0.3,3.22,1.43,5.67,5.37,5.67c2.69,0,5.31-0.84,7.76-1.79c1.37,1.37,2.21,3.64,2.45,5.49
			c-2.99,2.15-7.52,3.4-11.7,3.4c-10.51,0-13.31-7.7-13.31-15.58c0-9.02,3.88-16,13.37-16c7.88,0,12.42,5.43,12.42,12.66
			c0,2.63-0.18,4.18-0.78,6.15H366.88z M366.82,38.47h7.88v-0.66c0-2.75-1.13-5.08-3.94-5.08
			C368.13,32.73,367.06,34.59,366.82,38.47z"/>
		<path class="st0" d="M401.45,26.41c2.09,0,3.88,0.54,5.55,1.31V13.27l0.36-0.42H411c3.7,0,5.08,1.43,5.08,5.61V48.2
			c0,1.91,0.66,3.58,1.67,4.3c-0.36,1.61-1.67,3.88-2.87,4.78c-2.99-0.06-5.08-1.31-6.39-3.34c-2.09,2.21-4.96,3.76-8.24,3.76
			c-7.28,0-10.75-6.39-10.75-15.46C389.51,31.96,394.94,26.41,401.45,26.41z M407,47.84V34.76c-1.43-0.84-2.75-1.43-3.88-1.43
			c-2.87,0-4.06,3.46-4.06,8.96c0,5.55,1.49,7.88,3.58,7.88C403.84,50.17,405.51,49.69,407,47.84z"/>
		<path class="st0" d="M448.09,57.27c-3.04-0.06-5.13-1.43-6.45-3.16c-2.09,1.97-4.84,3.58-8.72,3.58c-6.15,0-9.08-4.78-9.08-9.08
			c0-7.17,5.67-10.33,11.82-10.33c1.07,0,2.69,0,4.24,0.12v-1.13c0-2.51-1.19-3.76-3.88-3.76c-2.57,0-5.67,0.96-8.78,1.91
			c-1.31-1.55-2.03-4.18-2.27-6.51c4-1.61,9.79-2.63,13.67-2.63c5.19,0,10.63,2.63,10.63,10.21v12.12c0,1.73,0.48,3.04,1.67,3.88
			C450.59,54.11,449.28,56.38,448.09,57.27z M439.91,49.09v-4.78c-1.19-0.06-2.39-0.12-3.22-0.12c-2.69,0-3.76,1.55-3.76,3.82
			c0,1.61,1.07,2.81,2.75,2.81C437.04,50.83,438.53,50.23,439.91,49.09z"/>
		<path class="st0" d="M476.33,30.17c0,1.19-0.12,2.33-0.36,3.4l-7.1-0.12v13.73c0,1.79,0.78,2.81,2.63,2.81h3.34
			c0.48,1.31,0.78,2.99,0.78,4.42c0,0.72-0.06,1.49-0.24,2.09c-2.21,0.3-5.37,0.6-7.7,0.6c-5.43,0-7.94-2.63-7.94-8.3V33.51
			l-4.66,0.06c-0.3-1.07-0.42-2.21-0.42-3.4c0-1.01,0.12-2.09,0.42-3.22l4.66,0.12V23.6c0-4.12,1.43-5.61,5.08-5.61h3.64l0.42,0.42
			v8.66l7.1-0.12C476.21,28.08,476.33,29.15,476.33,30.17z"/>
		<path class="st0" d="M504.7,54.17c-2.51,2.45-5.79,3.52-9.49,3.52c-3.76,0-7.04-1.07-9.49-3.52c-3.16-3.17-4.3-7.05-4.3-12.3
			c0-5.19,1.13-9.08,4.3-12.24c2.45-2.45,5.73-3.52,9.49-3.52c3.7,0,6.99,1.07,9.49,3.52c3.16,3.16,4.3,7.05,4.3,12.24
			C509,47.12,507.86,51,504.7,54.17z M495.2,50.71c3.64,0,4.18-3.88,4.18-8.84c0-4.9-0.54-8.78-4.18-8.78
			c-3.7,0-4.24,3.88-4.24,8.78C490.96,46.83,491.5,50.71,495.2,50.71z"/>
		<path class="st0" d="M516.82,48.44c2.63,1.37,5.91,2.51,8.3,2.51c2.27,0,3.46-0.9,3.46-2.09c0-1.13-0.78-2.03-2.75-2.69
			l-3.28-1.25c-4.18-1.55-7.46-4.12-7.46-8.96c0-6.03,4.54-9.85,11.58-9.85c3.58,0,8.36,1.19,10.99,2.51
			c0.12,2.21-1.07,5.37-2.57,6.51c-2.51-1.13-5.49-2.27-8.36-2.27c-1.61,0-2.45,0.84-2.45,1.91c0,1.02,0.66,1.67,2.27,2.27l3.7,1.31
			c4.54,1.61,7.94,4.54,7.94,9.61c0,5.97-4.78,9.73-12.06,9.73c-4.66,0-9.14-1.37-11.88-2.93
			C514.31,52.74,515.45,49.87,516.82,48.44z"/>
		<path class="st1" d="M545.66,49.09c1.19-0.66,3.1-1.08,4.66-1.08s3.52,0.42,4.72,1.08c0.54,1.13,0.72,2.93,0.72,3.64
			c0,0.72-0.18,2.51-0.72,3.58c-1.19,0.78-3.16,1.13-4.72,1.13s-3.46-0.36-4.66-1.13c-0.54-1.08-0.72-2.87-0.72-3.58
			C544.94,52.02,545.12,50.23,545.66,49.09z"/>
		<path class="st0" d="M572.41,44.92c0.3,3.22,1.43,5.67,5.37,5.67c2.69,0,5.31-0.84,7.76-1.79c1.37,1.37,2.21,3.64,2.45,5.49
			c-2.99,2.15-7.52,3.4-11.7,3.4c-10.51,0-13.32-7.7-13.32-15.58c0-9.02,3.88-16,13.38-16c7.88,0,12.42,5.43,12.42,12.66
			c0,2.63-0.18,4.18-0.78,6.15H572.41z M572.35,38.47h7.88v-0.66c0-2.75-1.13-5.08-3.94-5.08
			C573.67,32.73,572.59,34.59,572.35,38.47z"/>
		<path class="st0" d="M596.9,48.44c2.63,1.37,5.91,2.51,8.3,2.51c2.27,0,3.46-0.9,3.46-2.09c0-1.13-0.78-2.03-2.75-2.69l-3.28-1.25
			c-4.18-1.55-7.46-4.12-7.46-8.96c0-6.03,4.54-9.85,11.58-9.85c3.58,0,8.36,1.19,10.99,2.51c0.12,2.21-1.08,5.37-2.57,6.51
			c-2.51-1.13-5.49-2.27-8.36-2.27c-1.61,0-2.45,0.84-2.45,1.91c0,1.02,0.66,1.67,2.27,2.27l3.7,1.31c4.54,1.61,7.94,4.54,7.94,9.61
			c0,5.97-4.78,9.73-12.06,9.73c-4.66,0-9.14-1.37-11.88-2.93C594.39,52.74,595.52,49.87,596.9,48.44z"/>
	</g>
</g>
<g>
</g>
<g>
</g>
<g>
</g>
<g>
</g>
<g>
</g>
<g>
</g>
<g>
</g>
<g>
</g>
<g>
</g>
<g>
</g>
<g>
</g>
<g>
</g>
<g>
</g>
<g>
</g>
<g>
</g>
</svg>
