<?xml version="1.0" encoding="utf-8"?>
<!-- Generator: Adobe Illustrator 25.4.1, SVG Export Plug-In . SVG Version: 6.00 Build 0)  -->
<svg version="1.1" id="Layer_1" xmlns="http://www.w3.org/2000/svg" xmlns:xlink="http://www.w3.org/1999/xlink" x="0px" y="0px"
	 viewBox="0 0 708.65 74.23" style="enable-background:new 0 0 708.65 74.23;" xml:space="preserve">
<style type="text/css">
	.st0{fill:#E0ECF8;}
	.st1{fill:#A3D8C8;}
</style>
<g>
	<path class="st0" d="M7.98,25.81L7.98,25.81v-8.61C7.98,7.7,15.67,0,25.17,0s17.19,7.7,17.19,17.19v1.21
		c0.04,1.72-1.32,3.15-3.04,3.19c-1.72,0.04-3.15-1.32-3.2-3.04c0-0.04,0-0.09,0-0.13v-1.24c0-6.06-4.91-10.97-10.97-10.97
		s-10.97,4.91-10.97,10.97v8.61h29.16c0.33,0,0.67,0.02,1,0.05l-18.17,18.1"/>
	<path class="st0" d="M52.25,34.7V50.9c-0.01,4.91-4,8.88-8.91,8.87h0H8.91c-4.9,0.02-8.89-3.94-8.91-8.84V50.9V34.7
		c0-2.18,0.81-4.28,2.27-5.9c0.12,0.21,0.27,0.4,0.45,0.57l21.17,21.08l0.05,0.05l0.05,0.05c1.22,1.21,3.19,1.21,4.42,0L50.13,28.9
		C51.51,30.52,52.26,32.58,52.25,34.7"/>
	<g>
		<path class="st0" d="M87,26.41c2.09,0,3.88,0.54,5.55,1.31V13.27l0.36-0.42h3.64c3.7,0,5.08,1.43,5.08,5.61V48.2
			c0,1.91,0.66,3.58,1.67,4.3c-0.36,1.61-1.67,3.88-2.87,4.78c-2.99-0.06-5.08-1.31-6.39-3.34c-2.09,2.21-4.96,3.76-8.24,3.76
			c-7.28,0-10.75-6.39-10.75-15.46C75.06,31.96,80.49,26.41,87,26.41z M92.55,47.84V34.76c-1.43-0.84-2.75-1.43-3.88-1.43
			c-2.87,0-4.06,3.46-4.06,8.96c0,5.55,1.49,7.88,3.58,7.88C89.39,50.17,91.06,49.69,92.55,47.84z"/>
		<path class="st0" d="M118.83,44.92c0.3,3.22,1.43,5.67,5.37,5.67c2.69,0,5.31-0.84,7.76-1.79c1.37,1.37,2.21,3.64,2.45,5.49
			c-2.99,2.15-7.52,3.4-11.7,3.4c-10.51,0-13.31-7.7-13.31-15.58c0-9.02,3.88-16,13.37-16c7.88,0,12.42,5.43,12.42,12.66
			c0,2.63-0.18,4.18-0.78,6.15H118.83z M118.77,38.47h7.88v-0.66c0-2.75-1.13-5.08-3.94-5.08
			C120.08,32.73,119.01,34.59,118.77,38.47z"/>
		<path class="st0" d="M156.39,34.82c-1.25,0.06-2.69,0.84-3.94,2.03V56.8c-1.31,0.24-3.05,0.36-4.66,0.36
			c-1.55,0-3.34-0.12-4.66-0.36V27l0.42-0.42h3.46c2.57,0,4.24,1.37,5.02,3.76c2.33-2.15,5.13-3.88,8.24-3.88
			c3.28,0,5.67,1.61,6.99,4.12c2.57-2.27,5.91-4.12,9.2-4.12c5.25,0,7.94,4.06,7.94,9.49v13.37c0,2.33,0.42,4.42,1.49,5.91
			c-1.37,1.19-3.46,2.03-5.79,2.03c-3.76,0-5.02-2.03-5.02-5.79V38.77c0-3.17-1.55-3.94-2.81-3.94c-1.13,0-2.57,0.84-3.82,2.09V56.8
			c-1.31,0.24-3.1,0.36-4.72,0.36c-1.55,0-3.28-0.12-4.66-0.36V38.83C159.07,35.66,157.7,34.82,156.39,34.82z"/>
		<path class="st0" d="M216.1,57.27c-3.05-0.06-5.14-1.43-6.45-3.16c-2.09,1.97-4.84,3.58-8.72,3.58c-6.15,0-9.08-4.78-9.08-9.08
			c0-7.17,5.67-10.33,11.82-10.33c1.07,0,2.69,0,4.24,0.12v-1.13c0-2.51-1.19-3.76-3.88-3.76c-2.57,0-5.67,0.96-8.78,1.91
			c-1.31-1.55-2.03-4.18-2.27-6.51c4-1.61,9.79-2.63,13.67-2.63c5.19,0,10.63,2.63,10.63,10.21v12.12c0,1.73,0.48,3.04,1.67,3.88
			C218.61,54.11,217.3,56.38,216.1,57.27z M207.92,49.09v-4.78c-1.19-0.06-2.39-0.12-3.22-0.12c-2.69,0-3.76,1.55-3.76,3.82
			c0,1.61,1.07,2.81,2.75,2.81C205.06,50.83,206.55,50.23,207.92,49.09z"/>
		<path class="st0" d="M252.23,49.33c0,2.33,0.36,4.42,1.43,5.91c-1.37,1.19-3.46,2.03-5.79,2.03c-3.76,0-5.02-2.03-5.02-5.79V38.77
			c0-2.69-0.54-3.94-2.57-3.94c-1.19,0-2.87,0.6-4.42,2.03V56.8c-1.31,0.24-3.05,0.36-4.66,0.36c-1.55,0-3.34-0.12-4.66-0.36V27
			l0.42-0.42h3.52c2.51,0,4.12,1.31,4.9,3.58c2.33-2.09,5.02-3.7,8.48-3.7c5.43,0,8.36,4.42,8.36,10.63V49.33z"/>
		<path class="st0" d="M271.76,26.41c2.09,0,3.88,0.54,5.55,1.31V13.27l0.36-0.42h3.64c3.7,0,5.08,1.43,5.08,5.61V48.2
			c0,1.91,0.66,3.58,1.67,4.3c-0.36,1.61-1.67,3.88-2.87,4.78c-2.99-0.06-5.08-1.31-6.39-3.34c-2.09,2.21-4.96,3.76-8.24,3.76
			c-7.28,0-10.75-6.39-10.75-15.46C259.81,31.96,265.25,26.41,271.76,26.41z M277.31,47.84V34.76c-1.43-0.84-2.75-1.43-3.88-1.43
			c-2.87,0-4.06,3.46-4.06,8.96c0,5.55,1.49,7.88,3.58,7.88C274.14,50.17,275.82,49.69,277.31,47.84z"/>
		<path class="st0" d="M303.58,44.92c0.3,3.22,1.43,5.67,5.37,5.67c2.69,0,5.31-0.84,7.76-1.79c1.37,1.37,2.21,3.64,2.45,5.49
			c-2.99,2.15-7.52,3.4-11.7,3.4c-10.51,0-13.31-7.7-13.31-15.58c0-9.02,3.88-16,13.37-16c7.88,0,12.42,5.43,12.42,12.66
			c0,2.63-0.18,4.18-0.78,6.15H303.58z M303.52,38.47h7.88v-0.66c0-2.75-1.13-5.08-3.94-5.08
			C304.84,32.73,303.76,34.59,303.52,38.47z"/>
		<path class="st0" d="M345.68,30.17c0,1.19-0.12,2.33-0.36,3.4l-7.1-0.12v13.73c0,1.79,0.78,2.81,2.63,2.81h3.34
			c0.48,1.31,0.78,2.99,0.78,4.42c0,0.72-0.06,1.49-0.24,2.09c-2.21,0.3-5.37,0.6-7.7,0.6c-5.43,0-7.94-2.63-7.94-8.3V33.51
			l-4.66,0.06c-0.3-1.07-0.42-2.21-0.42-3.4c0-1.01,0.12-2.09,0.42-3.22l4.66,0.12V23.6c0-4.12,1.43-5.61,5.07-5.61h3.64l0.42,0.42
			v8.66l7.1-0.12C345.56,28.08,345.68,29.15,345.68,30.17z"/>
		<path class="st0" d="M360.19,44.92c0.3,3.22,1.43,5.67,5.37,5.67c2.69,0,5.31-0.84,7.76-1.79c1.37,1.37,2.21,3.64,2.45,5.49
			c-2.99,2.15-7.52,3.4-11.7,3.4c-10.51,0-13.31-7.7-13.31-15.58c0-9.02,3.88-16,13.37-16c7.88,0,12.42,5.43,12.42,12.66
			c0,2.63-0.18,4.18-0.78,6.15H360.19z M360.13,38.47h7.88v-0.66c0-2.75-1.13-5.08-3.94-5.08
			C361.45,32.73,360.37,34.59,360.13,38.47z"/>
		<path class="st0" d="M384.68,48.44c2.63,1.37,5.91,2.51,8.3,2.51c2.27,0,3.46-0.9,3.46-2.09c0-1.13-0.78-2.03-2.75-2.69
			l-3.28-1.25c-4.18-1.55-7.46-4.12-7.46-8.96c0-6.03,4.54-9.85,11.58-9.85c3.58,0,8.36,1.19,10.99,2.51
			c0.12,2.21-1.07,5.37-2.57,6.51c-2.51-1.13-5.49-2.27-8.36-2.27c-1.61,0-2.45,0.84-2.45,1.91c0,1.02,0.66,1.67,2.27,2.27l3.7,1.31
			c4.54,1.61,7.94,4.54,7.94,9.61c0,5.97-4.78,9.73-12.06,9.73c-4.66,0-9.14-1.37-11.88-2.93C382.17,52.74,383.3,49.87,384.68,48.44
			z"/>
		<path class="st0" d="M423.49,26.41c2.09,0,3.88,0.54,5.55,1.31V13.27l0.36-0.42h3.64c3.7,0,5.08,1.43,5.08,5.61V48.2
			c0,1.91,0.66,3.58,1.67,4.3c-0.36,1.61-1.67,3.88-2.87,4.78c-2.99-0.06-5.08-1.31-6.39-3.34c-2.09,2.21-4.96,3.76-8.24,3.76
			c-7.28,0-10.75-6.39-10.75-15.46C411.55,31.96,416.98,26.41,423.49,26.41z M429.04,47.84V34.76c-1.43-0.84-2.75-1.43-3.88-1.43
			c-2.87,0-4.06,3.46-4.06,8.96c0,5.55,1.49,7.88,3.58,7.88C425.88,50.17,427.55,49.69,429.04,47.84z"/>
		<path class="st0" d="M469.17,54.17c-2.51,2.45-5.79,3.52-9.49,3.52c-3.76,0-7.04-1.07-9.49-3.52c-3.16-3.17-4.3-7.05-4.3-12.3
			c0-5.19,1.13-9.08,4.3-12.24c2.45-2.45,5.73-3.52,9.49-3.52c3.7,0,6.99,1.07,9.49,3.52c3.16,3.16,4.3,7.05,4.3,12.24
			C473.47,47.12,472.33,51,469.17,54.17z M459.67,50.71c3.64,0,4.18-3.88,4.18-8.84c0-4.9-0.54-8.78-4.18-8.78
			c-3.7,0-4.24,3.88-4.24,8.78C455.44,46.83,455.97,50.71,459.67,50.71z"/>
		<path class="st0" d="M506.79,49.33c0,2.33,0.36,4.42,1.43,5.91c-1.37,1.19-3.46,2.03-5.79,2.03c-3.76,0-5.01-2.03-5.01-5.79V38.77
			c0-2.69-0.54-3.94-2.57-3.94c-1.19,0-2.87,0.6-4.42,2.03V56.8c-1.31,0.24-3.04,0.36-4.66,0.36c-1.55,0-3.34-0.12-4.66-0.36V27
			l0.42-0.42h3.52c2.51,0,4.12,1.31,4.9,3.58c2.33-2.09,5.02-3.7,8.48-3.7c5.43,0,8.36,4.42,8.36,10.63V49.33z"/>
		<path class="st0" d="M541.72,49.33c0,2.33,0.36,4.42,1.43,5.91c-1.37,1.19-3.46,2.03-5.79,2.03c-3.76,0-5.02-2.03-5.02-5.79V38.77
			c0-2.69-0.54-3.94-2.57-3.94c-1.19,0-2.87,0.6-4.42,2.03V56.8c-1.31,0.24-3.04,0.36-4.66,0.36c-1.55,0-3.34-0.12-4.66-0.36V27
			l0.42-0.42h3.52c2.51,0,4.12,1.31,4.9,3.58c2.33-2.09,5.02-3.7,8.48-3.7c5.43,0,8.36,4.42,8.36,10.63V49.33z"/>
		<path class="st0" d="M558.62,44.92c0.3,3.22,1.43,5.67,5.37,5.67c2.69,0,5.31-0.84,7.76-1.79c1.37,1.37,2.21,3.64,2.45,5.49
			c-2.99,2.15-7.52,3.4-11.7,3.4c-10.51,0-13.32-7.7-13.32-15.58c0-9.02,3.88-16,13.38-16c7.88,0,12.42,5.43,12.42,12.66
			c0,2.63-0.18,4.18-0.78,6.15H558.62z M558.56,38.47h7.88v-0.66c0-2.75-1.13-5.08-3.94-5.08C559.88,32.73,558.8,34.59,558.56,38.47
			z"/>
		<path class="st0" d="M590.57,44.92c0.3,3.22,1.43,5.67,5.37,5.67c2.69,0,5.31-0.84,7.76-1.79c1.37,1.37,2.21,3.64,2.45,5.49
			c-2.99,2.15-7.52,3.4-11.7,3.4c-10.51,0-13.32-7.7-13.32-15.58c0-9.02,3.88-16,13.38-16c7.88,0,12.42,5.43,12.42,12.66
			c0,2.63-0.18,4.18-0.78,6.15H590.57z M590.51,38.47h7.88v-0.66c0-2.75-1.13-5.08-3.94-5.08
			C591.82,32.73,590.75,34.59,590.51,38.47z"/>
		<path class="st0" d="M615.05,48.44c2.63,1.37,5.91,2.51,8.3,2.51c2.27,0,3.46-0.9,3.46-2.09c0-1.13-0.78-2.03-2.75-2.69
			l-3.28-1.25c-4.18-1.55-7.46-4.12-7.46-8.96c0-6.03,4.54-9.85,11.58-9.85c3.58,0,8.36,1.19,10.99,2.51
			c0.12,2.21-1.08,5.37-2.57,6.51c-2.51-1.13-5.49-2.27-8.36-2.27c-1.61,0-2.45,0.84-2.45,1.91c0,1.02,0.66,1.67,2.27,2.27l3.7,1.31
			c4.54,1.61,7.94,4.54,7.94,9.61c0,5.97-4.78,9.73-12.06,9.73c-4.66,0-9.14-1.37-11.88-2.93
			C612.54,52.74,613.68,49.87,615.05,48.44z"/>
		<path class="st1" d="M643.89,49.09c1.19-0.66,3.1-1.08,4.66-1.08s3.52,0.42,4.72,1.08c0.54,1.13,0.72,2.93,0.72,3.64
			c0,0.72-0.18,2.51-0.72,3.58c-1.19,0.78-3.16,1.13-4.72,1.13s-3.46-0.36-4.66-1.13c-0.54-1.08-0.72-2.87-0.72-3.58
			C643.18,52.02,643.36,50.23,643.89,49.09z"/>
		<path class="st0" d="M664.67,33.51l-5.13,0.06c-0.24-1.01-0.36-2.33-0.36-3.4c0-1.01,0.12-2.21,0.36-3.22L664.2,27
			c-0.18-1.31-0.3-2.63-0.3-4c0-5.91,4.18-10.39,10.39-10.39c3.76,0,7.11,0.9,9.2,1.67c0.06,2.09-0.84,4.9-2.03,6.15
			c-1.19-0.36-2.99-0.84-4.6-0.84c-2.57,0-4,1.37-4,4.12c0,1.01,0.06,2.15,0.24,3.34l7.82-0.12c0.24,1.01,0.36,2.21,0.36,3.22
			c0,1.08-0.12,2.39-0.36,3.4l-7.17-0.12V56.8c-1.37,0.24-3.04,0.36-4.6,0.36c-1.49,0-3.04-0.12-4.48-0.36V33.51z"/>
		<path class="st0" d="M687.66,26.53c3.82,0.3,6.27,2.27,7.64,5.43c1.31-3.1,3.58-5.37,7.46-5.37c1.79,0,2.75,0.24,3.94,0.48
			c0,2.21-0.78,6.15-2.33,8.72c-1.01-0.36-2.03-0.48-3.04-0.6c-2.15,0-3.64,1.08-4.9,3.04V56.8c-1.31,0.24-3.05,0.36-4.66,0.36
			c-1.55,0-3.28-0.12-4.66-0.36V37.51c0-3.52-1.31-5.49-2.27-6.21C685.21,29.69,686.53,27.42,687.66,26.53z"/>
	</g>
</g>
<g>
</g>
<g>
</g>
<g>
</g>
<g>
</g>
<g>
</g>
<g>
</g>
<g>
</g>
<g>
</g>
<g>
</g>
<g>
</g>
<g>
</g>
<g>
</g>
<g>
</g>
<g>
</g>
<g>
</g>
</svg>
