<?xml version="1.0" encoding="utf-8"?>
<!-- Generator: Adobe Illustrator 25.4.1, SVG Export Plug-In . SVG Version: 6.00 Build 0)  -->
<svg version="1.1" id="Layer_1" xmlns="http://www.w3.org/2000/svg" xmlns:xlink="http://www.w3.org/1999/xlink" x="0px" y="0px"
	 viewBox="0 0 699.95 74.23" style="enable-background:new 0 0 699.95 74.23;" xml:space="preserve">
<style type="text/css">
	.st0{fill:#E0ECF8;}
	.st1{fill:#A3D8C8;}
</style>
<g>
	<path class="st0" d="M7.98,25.81L7.98,25.81v-8.61C7.98,7.7,15.67,0,25.17,0s17.19,7.7,17.19,17.19v1.21
		c0.04,1.72-1.32,3.15-3.04,3.19c-1.72,0.04-3.15-1.32-3.2-3.04c0-0.04,0-0.09,0-0.13v-1.24c0-6.06-4.91-10.97-10.97-10.97
		s-10.97,4.91-10.97,10.97v8.61h29.16c0.33,0,0.67,0.02,1,0.05l-18.17,18.1"/>
	<path class="st0" d="M52.25,34.7V50.9c-0.01,4.91-4,8.88-8.91,8.87h0H8.91c-4.9,0.02-8.89-3.94-8.91-8.84V50.9V34.7
		c0-2.18,0.81-4.28,2.27-5.9c0.12,0.21,0.27,0.4,0.45,0.57l21.17,21.08l0.05,0.05l0.05,0.05c1.22,1.21,3.19,1.21,4.42,0L50.13,28.9
		C51.51,30.52,52.26,32.58,52.25,34.7"/>
	<g>
		<path class="st0" d="M87,26.11c3.52,0,6.09,1.25,7.88,2.81c1.31-1.43,3.16-2.33,5.61-2.39c1.19,0.9,2.63,3.1,2.87,4.78
			c-1.01,0.72-1.67,2.39-1.67,4.3v15.76c0,8.36-1.19,11.88-3.04,14.27c-2.39,2.99-6.45,4.36-11.23,4.36
			c-3.76,0-8.12-0.78-11.23-1.97c0-2.21,0.96-5.19,2.27-6.75c2.57,1.13,5.43,1.79,8.12,1.79c4.36,0,6.03-2.39,6.03-6.03v-1.97
			c-1.97,1.43-4.36,2.33-6.81,2.33c-7.28,0-10.75-6.39-10.75-15.46C75.06,31.72,80.49,26.11,87,26.11z M92.61,35.06
			c-1.37-1.31-2.81-2.03-3.94-2.03c-2.93,0-4.06,3.4-4.06,8.96s1.49,7.88,3.52,7.88c1.55,0,3.1-0.66,4.48-2.03V35.48V35.06z"/>
		<path class="st0" d="M118.65,44.92c0.3,3.22,1.43,5.67,5.37,5.67c2.69,0,5.31-0.84,7.76-1.79c1.37,1.37,2.21,3.64,2.45,5.49
			c-2.99,2.15-7.52,3.4-11.7,3.4c-10.51,0-13.31-7.7-13.31-15.58c0-9.02,3.88-16,13.37-16c7.88,0,12.42,5.43,12.42,12.66
			c0,2.63-0.18,4.18-0.78,6.15H118.65z M118.59,38.47h7.88v-0.66c0-2.75-1.13-5.08-3.94-5.08C119.9,32.73,118.83,34.59,118.59,38.47
			z"/>
		<path class="st0" d="M153.22,26.11c3.52,0,6.09,1.25,7.88,2.81c1.31-1.43,3.16-2.33,5.61-2.39c1.19,0.9,2.63,3.1,2.87,4.78
			c-1.01,0.72-1.67,2.39-1.67,4.3v15.76c0,8.36-1.19,11.88-3.04,14.27c-2.39,2.99-6.45,4.36-11.23,4.36
			c-3.76,0-8.12-0.78-11.23-1.97c0-2.21,0.96-5.19,2.27-6.75c2.57,1.13,5.43,1.79,8.12,1.79c4.36,0,6.03-2.39,6.03-6.03v-1.97
			c-1.97,1.43-4.36,2.33-6.81,2.33c-7.28,0-10.75-6.39-10.75-15.46C141.28,31.72,146.72,26.11,153.22,26.11z M158.84,35.06
			c-1.37-1.31-2.81-2.03-3.94-2.03c-2.93,0-4.06,3.4-4.06,8.96s1.49,7.88,3.52,7.88c1.55,0,3.1-0.66,4.48-2.03V35.48V35.06z"/>
		<path class="st0" d="M184.87,44.92c0.3,3.22,1.43,5.67,5.37,5.67c2.69,0,5.31-0.84,7.76-1.79c1.37,1.37,2.21,3.64,2.45,5.49
			c-2.99,2.15-7.52,3.4-11.7,3.4c-10.51,0-13.31-7.7-13.31-15.58c0-9.02,3.88-16,13.37-16c7.88,0,12.42,5.43,12.42,12.66
			c0,2.63-0.18,4.18-0.78,6.15H184.87z M184.81,38.47h7.88v-0.66c0-2.75-1.13-5.08-3.94-5.08
			C186.13,32.73,185.05,34.59,184.81,38.47z"/>
		<path class="st0" d="M225.66,27.06c1.13-0.24,2.27-0.36,3.4-0.36c1.61,0,3.4,0.18,4.84,0.72l0.3,0.42
			c-2.39,8.66-6.09,22.09-8.3,28.96c-2.03,0.24-4.6,0.36-6.99,0.36c-3.52,0-5.37-0.78-6.45-4.48l-7.16-24.96
			c1.67-0.72,3.64-1.25,5.19-1.25c2.93,0,4.6,1.13,5.37,4.36l2.69,11.17c0.6,2.27,1.02,5.43,1.31,7.22c0.06,0.48,0.24,0.48,0.6,0.48
			L225.66,27.06z"/>
		<path class="st0" d="M247.75,44.92c0.3,3.22,1.43,5.67,5.37,5.67c2.69,0,5.31-0.84,7.76-1.79c1.37,1.37,2.21,3.64,2.45,5.49
			c-2.99,2.15-7.52,3.4-11.7,3.4c-10.51,0-13.31-7.7-13.31-15.58c0-9.02,3.88-16,13.37-16c7.88,0,12.42,5.43,12.42,12.66
			c0,2.63-0.18,4.18-0.78,6.15H247.75z M247.69,38.47h7.88v-0.66c0-2.75-1.13-5.08-3.94-5.08
			C249.01,32.73,247.93,34.59,247.69,38.47z"/>
		<path class="st0" d="M297.73,49.33c0,2.33,0.36,4.42,1.43,5.91c-1.37,1.19-3.46,2.03-5.79,2.03c-3.76,0-5.02-2.03-5.02-5.79V38.77
			c0-2.69-0.54-3.94-2.57-3.94c-1.19,0-2.87,0.6-4.42,2.03V56.8c-1.31,0.24-3.05,0.36-4.66,0.36c-1.55,0-3.34-0.12-4.66-0.36V27
			l0.42-0.42H276c2.51,0,4.12,1.31,4.9,3.58c2.33-2.09,5.02-3.7,8.48-3.7c5.43,0,8.36,4.42,8.36,10.63V49.33z"/>
		<path class="st0" d="M307.17,48.44c2.63,1.37,5.91,2.51,8.3,2.51c2.27,0,3.46-0.9,3.46-2.09c0-1.13-0.78-2.03-2.75-2.69
			l-3.28-1.25c-4.18-1.55-7.46-4.12-7.46-8.96c0-6.03,4.54-9.85,11.58-9.85c3.58,0,8.36,1.19,10.99,2.51
			c0.12,2.21-1.07,5.37-2.57,6.51c-2.51-1.13-5.49-2.27-8.36-2.27c-1.61,0-2.45,0.84-2.45,1.91c0,1.02,0.66,1.67,2.27,2.27l3.7,1.31
			c4.54,1.61,7.94,4.54,7.94,9.61c0,5.97-4.78,9.73-12.06,9.73c-4.66,0-9.14-1.37-11.88-2.93
			C304.66,52.74,305.79,49.87,307.17,48.44z"/>
		<path class="st0" d="M358.16,57.27c-3.05-0.06-5.14-1.43-6.45-3.16c-2.09,1.97-4.84,3.58-8.72,3.58c-6.15,0-9.08-4.78-9.08-9.08
			c0-7.17,5.67-10.33,11.82-10.33c1.07,0,2.69,0,4.24,0.12v-1.13c0-2.51-1.19-3.76-3.88-3.76c-2.57,0-5.67,0.96-8.78,1.91
			c-1.31-1.55-2.03-4.18-2.27-6.51c4-1.61,9.79-2.63,13.67-2.63c5.19,0,10.63,2.63,10.63,10.21v12.12c0,1.73,0.48,3.04,1.67,3.88
			C360.67,54.11,359.36,56.38,358.16,57.27z M349.98,49.09v-4.78c-1.19-0.06-2.39-0.12-3.22-0.12c-2.69,0-3.76,1.55-3.76,3.82
			c0,1.61,1.07,2.81,2.75,2.81C347.12,50.83,348.61,50.23,349.98,49.09z"/>
		<path class="st0" d="M391.06,57.27c-3.05-0.06-5.14-1.43-6.45-3.16c-2.09,1.97-4.84,3.58-8.72,3.58c-6.15,0-9.08-4.78-9.08-9.08
			c0-7.17,5.67-10.33,11.82-10.33c1.07,0,2.69,0,4.24,0.12v-1.13c0-2.51-1.19-3.76-3.88-3.76c-2.57,0-5.67,0.96-8.78,1.91
			c-1.31-1.55-2.03-4.18-2.27-6.51c4-1.61,9.79-2.63,13.67-2.63c5.19,0,10.63,2.63,10.63,10.21v12.12c0,1.73,0.48,3.04,1.67,3.88
			C393.57,54.11,392.26,56.38,391.06,57.27z M382.88,49.09v-4.78c-1.19-0.06-2.39-0.12-3.22-0.12c-2.69,0-3.76,1.55-3.76,3.82
			c0,1.61,1.07,2.81,2.75,2.81C380.02,50.83,381.51,50.23,382.88,49.09z"/>
		<path class="st0" d="M427.19,49.33c0,2.33,0.36,4.42,1.43,5.91c-1.37,1.19-3.46,2.03-5.79,2.03c-3.76,0-5.02-2.03-5.02-5.79V38.77
			c0-2.69-0.54-3.94-2.57-3.94c-1.19,0-2.87,0.6-4.42,2.03V56.8c-1.31,0.24-3.05,0.36-4.66,0.36c-1.55,0-3.34-0.12-4.66-0.36V27
			l0.42-0.42h3.52c2.51,0,4.12,1.31,4.9,3.58c2.33-2.09,5.02-3.7,8.48-3.7c5.43,0,8.36,4.42,8.36,10.63V49.33z"/>
		<path class="st0" d="M452.93,27.06c1.13-0.24,2.27-0.36,3.4-0.36c1.61,0,3.4,0.18,4.84,0.72l0.3,0.42
			c-2.39,8.66-6.09,22.09-8.3,28.96c-2.03,0.24-4.6,0.36-6.99,0.36c-3.52,0-5.37-0.78-6.45-4.48l-7.16-24.96
			c1.67-0.72,3.64-1.25,5.19-1.25c2.93,0,4.6,1.13,5.37,4.36l2.69,11.17c0.6,2.27,1.01,5.43,1.31,7.22c0.06,0.48,0.24,0.48,0.6,0.48
			L452.93,27.06z"/>
		<path class="st0" d="M468.39,26.53c3.82,0.3,6.27,2.27,7.64,5.43c1.31-3.1,3.58-5.37,7.46-5.37c1.79,0,2.75,0.24,3.94,0.48
			c0,2.21-0.78,6.15-2.33,8.72c-1.01-0.36-2.03-0.48-3.04-0.6c-2.15,0-3.64,1.08-4.9,3.04V56.8c-1.31,0.24-3.04,0.36-4.66,0.36
			c-1.55,0-3.28-0.12-4.66-0.36V37.51c0-3.52-1.31-5.49-2.27-6.21C465.95,29.69,467.26,27.42,468.39,26.53z"/>
		<path class="st0" d="M515.81,57.27c-3.05-0.06-5.14-1.43-6.45-3.16c-2.09,1.97-4.84,3.58-8.72,3.58c-6.15,0-9.08-4.78-9.08-9.08
			c0-7.17,5.67-10.33,11.82-10.33c1.08,0,2.69,0,4.24,0.12v-1.13c0-2.51-1.19-3.76-3.88-3.76c-2.57,0-5.67,0.96-8.78,1.91
			c-1.31-1.55-2.03-4.18-2.27-6.51c4-1.61,9.79-2.63,13.67-2.63c5.2,0,10.63,2.63,10.63,10.21v12.12c0,1.73,0.48,3.04,1.67,3.88
			C518.31,54.11,517,56.38,515.81,57.27z M507.63,49.09v-4.78c-1.19-0.06-2.39-0.12-3.22-0.12c-2.69,0-3.76,1.55-3.76,3.82
			c0,1.61,1.07,2.81,2.75,2.81C504.76,50.83,506.25,50.23,507.63,49.09z"/>
		<path class="st0" d="M536.53,26.11c3.52,0,6.09,1.25,7.88,2.81c1.31-1.43,3.16-2.33,5.61-2.39c1.19,0.9,2.63,3.1,2.87,4.78
			c-1.02,0.72-1.67,2.39-1.67,4.3v15.76c0,8.36-1.19,11.88-3.04,14.27c-2.39,2.99-6.45,4.36-11.23,4.36
			c-3.76,0-8.12-0.78-11.22-1.97c0-2.21,0.96-5.19,2.27-6.75c2.57,1.13,5.43,1.79,8.12,1.79c4.36,0,6.03-2.39,6.03-6.03v-1.97
			c-1.97,1.43-4.36,2.33-6.81,2.33c-7.28,0-10.75-6.39-10.75-15.46C524.59,31.72,530.02,26.11,536.53,26.11z M542.14,35.06
			c-1.37-1.31-2.81-2.03-3.94-2.03c-2.93,0-4.06,3.4-4.06,8.96s1.49,7.88,3.52,7.88c1.55,0,3.1-0.66,4.48-2.03V35.48V35.06z"/>
		<path class="st0" d="M568.17,44.92c0.3,3.22,1.43,5.67,5.37,5.67c2.69,0,5.31-0.84,7.76-1.79c1.37,1.37,2.21,3.64,2.45,5.49
			c-2.99,2.15-7.52,3.4-11.7,3.4c-10.51,0-13.32-7.7-13.32-15.58c0-9.02,3.88-16,13.38-16c7.88,0,12.42,5.43,12.42,12.66
			c0,2.63-0.18,4.18-0.78,6.15H568.17z M568.12,38.47H576v-0.66c0-2.75-1.13-5.08-3.94-5.08C569.43,32.73,568.35,34.59,568.12,38.47
			z"/>
		<path class="st0" d="M618.15,49.33c0,2.33,0.36,4.42,1.43,5.91c-1.37,1.19-3.46,2.03-5.79,2.03c-3.76,0-5.02-2.03-5.02-5.79V38.77
			c0-2.69-0.54-3.94-2.57-3.94c-1.19,0-2.87,0.6-4.42,2.03V56.8c-1.31,0.24-3.04,0.36-4.66,0.36c-1.55,0-3.34-0.12-4.66-0.36V27
			l0.42-0.42h3.52c2.51,0,4.12,1.31,4.9,3.58c2.33-2.09,5.02-3.7,8.48-3.7c5.43,0,8.36,4.42,8.36,10.63V49.33z"/>
		<path class="st1" d="M627.71,49.09c1.19-0.66,3.1-1.08,4.66-1.08s3.52,0.42,4.72,1.08c0.54,1.13,0.72,2.93,0.72,3.64
			c0,0.72-0.18,2.51-0.72,3.58c-1.19,0.78-3.16,1.13-4.72,1.13s-3.46-0.36-4.66-1.13c-0.54-1.08-0.72-2.87-0.72-3.58
			C626.99,52.02,627.17,50.23,627.71,49.09z"/>
		<path class="st0" d="M672.49,49.33c0,2.33,0.36,4.42,1.43,5.91c-1.37,1.19-3.46,2.03-5.79,2.03c-3.76,0-5.02-2.03-5.02-5.79V38.77
			c0-2.69-0.54-3.94-2.57-3.94c-1.19,0-2.87,0.6-4.42,2.03V56.8c-1.31,0.24-3.04,0.36-4.66,0.36c-1.55,0-3.34-0.12-4.66-0.36V27
			l0.42-0.42h3.52c2.51,0,4.12,1.31,4.9,3.58c2.33-2.09,5.02-3.7,8.48-3.7c5.43,0,8.36,4.42,8.36,10.63V49.33z"/>
		<path class="st0" d="M695.01,49.99c0.48,1.31,0.72,2.93,0.72,4.42c0,0.72,0,1.49-0.18,2.09c-1.79,0.3-4.18,0.6-6.45,0.6
			c-5.37,0-7.4-2.63-7.4-8.3V13.27l0.36-0.42h3.64c3.7,0,5.08,1.43,5.08,5.61v28.72c0,1.79,0.72,2.81,2.63,2.81H695.01z"/>
	</g>
</g>
<g>
</g>
<g>
</g>
<g>
</g>
<g>
</g>
<g>
</g>
<g>
</g>
<g>
</g>
<g>
</g>
<g>
</g>
<g>
</g>
<g>
</g>
<g>
</g>
<g>
</g>
<g>
</g>
<g>
</g>
</svg>
