<?xml version="1.0" encoding="utf-8"?>
<!-- Generator: Adobe Illustrator 25.4.1, SVG Export Plug-In . SVG Version: 6.00 Build 0)  -->
<svg version="1.1" id="Layer_1" xmlns="http://www.w3.org/2000/svg" xmlns:xlink="http://www.w3.org/1999/xlink" x="0px" y="0px"
	 viewBox="0 0 602.65 74.23" style="enable-background:new 0 0 602.65 74.23;" xml:space="preserve">
<style type="text/css">
	.st0{fill:#E0ECF8;}
	.st1{fill:#A3D8C8;}
</style>
<g>
	<path class="st0" d="M7.98,25.81L7.98,25.81v-8.61C7.98,7.7,15.67,0,25.17,0s17.19,7.7,17.19,17.19v1.21
		c0.04,1.72-1.32,3.15-3.04,3.19c-1.72,0.04-3.15-1.32-3.2-3.04c0-0.04,0-0.09,0-0.13v-1.24c0-6.06-4.91-10.97-10.97-10.97
		s-10.97,4.91-10.97,10.97v8.61h29.16c0.33,0,0.67,0.02,1,0.05l-18.17,18.1"/>
	<path class="st0" d="M52.25,34.7V50.9c-0.01,4.91-4,8.88-8.91,8.87h0H8.91c-4.9,0.02-8.89-3.94-8.91-8.84V50.9V34.7
		c0-2.18,0.81-4.28,2.27-5.9c0.12,0.21,0.27,0.4,0.45,0.57l21.17,21.08l0.05,0.05l0.05,0.05c1.22,1.21,3.19,1.21,4.42,0L50.13,28.9
		C51.51,30.52,52.26,32.58,52.25,34.7"/>
	<g>
		<path class="st0" d="M91.36,57.39c-2.09,0-3.88-0.54-5.49-1.25v7.94c0,4.18-1.43,5.61-5.13,5.61h-3.58l-0.42-0.42V27l0.42-0.42
			h2.45c2.21,0,4,1.07,5.08,2.93c2.03-2.03,4.84-3.4,7.94-3.4c7.28,0,10.75,6.39,10.75,15.4C103.36,51.78,97.93,57.39,91.36,57.39z
			 M85.87,35.96v13.14c1.37,0.84,2.75,1.37,3.88,1.37c2.87,0,4.06-3.46,4.06-9.02c0-5.49-1.49-7.88-3.58-7.88
			C89.03,33.57,87.36,34.05,85.87,35.96z"/>
		<path class="st0" d="M118.77,44.92c0.3,3.22,1.43,5.67,5.37,5.67c2.69,0,5.31-0.84,7.76-1.79c1.37,1.37,2.21,3.64,2.45,5.49
			c-2.99,2.15-7.52,3.4-11.7,3.4c-10.51,0-13.31-7.7-13.31-15.58c0-9.02,3.88-16,13.37-16c7.88,0,12.42,5.43,12.42,12.66
			c0,2.63-0.18,4.18-0.78,6.15H118.77z M118.71,38.47h7.88v-0.66c0-2.75-1.13-5.08-3.94-5.08
			C120.02,32.73,118.95,34.59,118.71,38.47z"/>
		<path class="st0" d="M153.34,26.41c2.09,0,3.88,0.54,5.55,1.31V13.27l0.36-0.42h3.64c3.7,0,5.08,1.43,5.08,5.61V48.2
			c0,1.91,0.66,3.58,1.67,4.3c-0.36,1.61-1.67,3.88-2.87,4.78c-2.99-0.06-5.08-1.31-6.39-3.34c-2.09,2.21-4.96,3.76-8.24,3.76
			c-7.28,0-10.75-6.39-10.75-15.46C141.4,31.96,146.83,26.41,153.34,26.41z M158.9,47.84V34.76c-1.43-0.84-2.75-1.43-3.88-1.43
			c-2.87,0-4.06,3.46-4.06,8.96c0,5.55,1.49,7.88,3.58,7.88C155.73,50.17,157.4,49.69,158.9,47.84z"/>
		<path class="st0" d="M188.28,56.8c-1.31,0.24-3.1,0.36-4.72,0.36c-1.55,0-3.28-0.12-4.66-0.36V37.03c0-1.97-0.72-3.46-2.81-3.46
			h-0.9c-0.3-1.01-0.36-2.03-0.36-3.16c0-1.02,0.06-2.27,0.36-3.34c1.85-0.18,3.94-0.3,5.25-0.3h1.31c3.94,0,6.51,2.75,6.51,7.11
			V56.8z M177.83,15c1.02-0.54,2.81-0.96,4.42-0.96c1.61,0,3.52,0.42,4.42,0.96c0.48,1.07,0.72,2.39,0.72,3.46
			c0,1.07-0.24,2.39-0.72,3.46c-0.9,0.48-2.81,0.9-4.42,0.9c-1.61,0-3.52-0.36-4.42-0.9c-0.48-1.08-0.72-2.39-0.72-3.46
			C177.11,17.33,177.35,16.08,177.83,15z"/>
		<path class="st0" d="M207.86,26.41c2.09,0,3.88,0.54,5.55,1.31V13.27l0.36-0.42h3.64c3.7,0,5.08,1.43,5.08,5.61V48.2
			c0,1.91,0.66,3.58,1.67,4.3c-0.36,1.61-1.67,3.88-2.87,4.78c-2.99-0.06-5.08-1.31-6.39-3.34c-2.09,2.21-4.96,3.76-8.24,3.76
			c-7.28,0-10.75-6.39-10.75-15.46C195.92,31.96,201.35,26.41,207.86,26.41z M213.41,47.84V34.76c-1.43-0.84-2.75-1.43-3.88-1.43
			c-2.87,0-4.06,3.46-4.06,8.96c0,5.55,1.49,7.88,3.58,7.88C210.25,50.17,211.92,49.69,213.41,47.84z"/>
		<path class="st0" d="M253.54,54.17c-2.51,2.45-5.79,3.52-9.49,3.52c-3.76,0-7.05-1.07-9.49-3.52c-3.16-3.17-4.3-7.05-4.3-12.3
			c0-5.19,1.13-9.08,4.3-12.24c2.45-2.45,5.73-3.52,9.49-3.52c3.7,0,6.99,1.07,9.49,3.52c3.16,3.16,4.3,7.05,4.3,12.24
			C257.84,47.12,256.71,51,253.54,54.17z M244.05,50.71c3.64,0,4.18-3.88,4.18-8.84c0-4.9-0.54-8.78-4.18-8.78
			c-3.7,0-4.24,3.88-4.24,8.78C239.81,46.83,240.35,50.71,244.05,50.71z"/>
		<path class="st0" d="M275.75,26.41c2.09,0,3.88,0.54,5.55,1.31V13.27l0.36-0.42h3.64c3.7,0,5.08,1.43,5.08,5.61V48.2
			c0,1.91,0.66,3.58,1.67,4.3c-0.36,1.61-1.67,3.88-2.87,4.78c-2.99-0.06-5.08-1.31-6.39-3.34c-2.09,2.21-4.96,3.76-8.24,3.76
			c-7.28,0-10.75-6.39-10.75-15.46C263.81,31.96,269.25,26.41,275.75,26.41z M281.31,47.84V34.76c-1.43-0.84-2.75-1.43-3.88-1.43
			c-2.87,0-4.06,3.46-4.06,8.96c0,5.55,1.49,7.88,3.58,7.88C278.14,50.17,279.82,49.69,281.31,47.84z"/>
		<path class="st0" d="M307.58,44.92c0.3,3.22,1.43,5.67,5.37,5.67c2.69,0,5.31-0.84,7.76-1.79c1.37,1.37,2.21,3.64,2.45,5.49
			c-2.99,2.15-7.52,3.4-11.7,3.4c-10.51,0-13.31-7.7-13.31-15.58c0-9.02,3.88-16,13.37-16c7.88,0,12.42,5.43,12.42,12.66
			c0,2.63-0.18,4.18-0.78,6.15H307.58z M307.52,38.47h7.88v-0.66c0-2.75-1.13-5.08-3.94-5.08
			C308.84,32.73,307.76,34.59,307.52,38.47z"/>
		<path class="st0" d="M342.16,26.41c2.09,0,3.88,0.54,5.55,1.31V13.27l0.36-0.42h3.64c3.7,0,5.08,1.43,5.08,5.61V48.2
			c0,1.91,0.66,3.58,1.67,4.3c-0.36,1.61-1.67,3.88-2.87,4.78c-2.99-0.06-5.08-1.31-6.39-3.34c-2.09,2.21-4.96,3.76-8.24,3.76
			c-7.28,0-10.75-6.39-10.75-15.46C330.22,31.96,335.65,26.41,342.16,26.41z M347.71,47.84V34.76c-1.43-0.84-2.75-1.43-3.88-1.43
			c-2.87,0-4.06,3.46-4.06,8.96c0,5.55,1.49,7.88,3.58,7.88C344.55,50.17,346.22,49.69,347.71,47.84z"/>
		<path class="st0" d="M388.79,57.27c-3.05-0.06-5.14-1.43-6.45-3.16c-2.09,1.97-4.84,3.58-8.72,3.58c-6.15,0-9.08-4.78-9.08-9.08
			c0-7.17,5.67-10.33,11.82-10.33c1.07,0,2.69,0,4.24,0.12v-1.13c0-2.51-1.19-3.76-3.88-3.76c-2.57,0-5.67,0.96-8.78,1.91
			c-1.31-1.55-2.03-4.18-2.27-6.51c4-1.61,9.79-2.63,13.67-2.63c5.19,0,10.63,2.63,10.63,10.21v12.12c0,1.73,0.48,3.04,1.67,3.88
			C391.3,54.11,389.99,56.38,388.79,57.27z M380.61,49.09v-4.78c-1.19-0.06-2.39-0.12-3.22-0.12c-2.69,0-3.76,1.55-3.76,3.82
			c0,1.61,1.07,2.81,2.75,2.81C377.75,50.83,379.24,50.23,380.61,49.09z"/>
		<path class="st0" d="M409.51,26.41c2.09,0,3.88,0.54,5.55,1.31V13.27l0.36-0.42h3.64c3.7,0,5.08,1.43,5.08,5.61V48.2
			c0,1.91,0.66,3.58,1.67,4.3c-0.36,1.61-1.67,3.88-2.87,4.78c-2.99-0.06-5.08-1.31-6.39-3.34c-2.09,2.21-4.96,3.76-8.24,3.76
			c-7.28,0-10.75-6.39-10.75-15.46C397.57,31.96,403.01,26.41,409.51,26.41z M415.07,47.84V34.76c-1.43-0.84-2.75-1.43-3.88-1.43
			c-2.87,0-4.06,3.46-4.06,8.96c0,5.55,1.49,7.88,3.58,7.88C411.9,50.17,413.57,49.69,415.07,47.84z"/>
		<path class="st0" d="M455.19,54.17c-2.51,2.45-5.79,3.52-9.49,3.52c-3.76,0-7.05-1.07-9.49-3.52c-3.17-3.17-4.3-7.05-4.3-12.3
			c0-5.19,1.13-9.08,4.3-12.24c2.45-2.45,5.73-3.52,9.49-3.52c3.7,0,6.99,1.07,9.49,3.52c3.17,3.16,4.3,7.05,4.3,12.24
			C459.49,47.12,458.36,51,455.19,54.17z M445.7,50.71c3.64,0,4.18-3.88,4.18-8.84c0-4.9-0.54-8.78-4.18-8.78
			c-3.7,0-4.24,3.88-4.24,8.78C441.46,46.83,442,50.71,445.7,50.71z"/>
		<path class="st0" d="M467.32,48.44c2.63,1.37,5.91,2.51,8.3,2.51c2.27,0,3.46-0.9,3.46-2.09c0-1.13-0.78-2.03-2.75-2.69
			l-3.28-1.25c-4.18-1.55-7.46-4.12-7.46-8.96c0-6.03,4.54-9.85,11.58-9.85c3.58,0,8.36,1.19,10.99,2.51
			c0.12,2.21-1.07,5.37-2.57,6.51c-2.51-1.13-5.49-2.27-8.36-2.27c-1.61,0-2.45,0.84-2.45,1.91c0,1.02,0.66,1.67,2.27,2.27l3.7,1.31
			c4.54,1.61,7.94,4.54,7.94,9.61c0,5.97-4.78,9.73-12.06,9.73c-4.66,0-9.13-1.37-11.88-2.93
			C464.81,52.74,465.94,49.87,467.32,48.44z"/>
		<path class="st1" d="M496.16,49.09c1.19-0.66,3.1-1.08,4.66-1.08s3.52,0.42,4.72,1.08c0.54,1.13,0.72,2.93,0.72,3.64
			c0,0.72-0.18,2.51-0.72,3.58c-1.19,0.78-3.16,1.13-4.72,1.13s-3.46-0.36-4.66-1.13c-0.54-1.08-0.72-2.87-0.72-3.58
			C495.44,52.02,495.62,50.23,496.16,49.09z"/>
		<path class="st0" d="M536.76,54.17c-2.51,2.45-5.79,3.52-9.49,3.52c-3.76,0-7.04-1.07-9.49-3.52c-3.16-3.17-4.3-7.05-4.3-12.3
			c0-5.19,1.13-9.08,4.3-12.24c2.45-2.45,5.73-3.52,9.49-3.52c3.7,0,6.99,1.07,9.49,3.52c3.16,3.16,4.3,7.05,4.3,12.24
			C541.06,47.12,539.93,51,536.76,54.17z M527.27,50.71c3.64,0,4.18-3.88,4.18-8.84c0-4.9-0.54-8.78-4.18-8.78
			c-3.7,0-4.24,3.88-4.24,8.78C523.03,46.83,523.57,50.71,527.27,50.71z"/>
		<path class="st0" d="M549.72,26.53c3.82,0.3,6.27,2.27,7.64,5.43c1.31-3.1,3.58-5.37,7.46-5.37c1.79,0,2.75,0.24,3.94,0.48
			c0,2.21-0.78,6.15-2.33,8.72c-1.01-0.36-2.03-0.48-3.04-0.6c-2.15,0-3.64,1.08-4.9,3.04V56.8c-1.31,0.24-3.05,0.36-4.66,0.36
			c-1.55,0-3.28-0.12-4.66-0.36V37.51c0-3.52-1.31-5.49-2.27-6.21C547.27,29.69,548.59,27.42,549.72,26.53z"/>
		<path class="st0" d="M584.95,26.11c3.52,0,6.09,1.25,7.88,2.81c1.31-1.43,3.17-2.33,5.61-2.39c1.19,0.9,2.63,3.1,2.87,4.78
			c-1.01,0.72-1.67,2.39-1.67,4.3v15.76c0,8.36-1.19,11.88-3.04,14.27c-2.39,2.99-6.45,4.36-11.22,4.36
			c-3.76,0-8.12-0.78-11.23-1.97c0-2.21,0.96-5.19,2.27-6.75c2.57,1.13,5.43,1.79,8.12,1.79c4.36,0,6.03-2.39,6.03-6.03v-1.97
			c-1.97,1.43-4.36,2.33-6.81,2.33c-7.28,0-10.75-6.39-10.75-15.46C573.01,31.72,578.44,26.11,584.95,26.11z M590.56,35.06
			c-1.37-1.31-2.81-2.03-3.94-2.03c-2.93,0-4.06,3.4-4.06,8.96s1.49,7.88,3.52,7.88c1.55,0,3.11-0.66,4.48-2.03V35.48V35.06z"/>
	</g>
</g>
<g>
</g>
<g>
</g>
<g>
</g>
<g>
</g>
<g>
</g>
<g>
</g>
<g>
</g>
<g>
</g>
<g>
</g>
<g>
</g>
<g>
</g>
<g>
</g>
<g>
</g>
<g>
</g>
<g>
</g>
</svg>
